<svg xmlns="http://www.w3.org/2000/svg" width="880" height="360" viewBox="0 0 880 360" role="img" aria-labelledby="t d">
  <title id="t">San Francisco sales tax 2026 — how the 8.625% rate is built</title>
  <desc id="d">San Francisco sales tax is 8.625%, made up of a 7.25% California statewide base plus 1.375% of local tax, shown against nearby city rates.</desc>
  <style>
    .h{font:700 17px Arial,Helvetica,sans-serif;fill:#1c2333}
    .s{font:13px Arial,Helvetica,sans-serif;fill:#5f6b7a}
    .n{font:700 14px Arial,Helvetica,sans-serif;fill:#fff}
    .v{font:700 13px Arial,Helvetica,sans-serif;fill:#1c2333}
    .l{font:12px Arial,Helvetica,sans-serif;fill:#5f6b7a}
    .lg{font:12px Arial,Helvetica,sans-serif;fill:#5f6b7a}
  </style>
  <rect width="880" height="360" fill="#f7f8fa" rx="12"/><text x="440" y="38" text-anchor="middle" class="h">San Francisco sales tax 2026 — how the 8.625% rate is built</text><text x="440" y="62" text-anchor="middle" class="s">7.25% California statewide base plus 1.375% of local tax, compared with nearby cities</text><rect x="60.0" y="88" width="638.8" height="46" fill="#4a63e7" rx="4"/><text x="379.4" y="116" text-anchor="middle" class="n">7.25%</text><rect x="698.8" y="88" width="121.2" height="46" fill="#c9741a" rx="4"/><text x="759.4" y="116" text-anchor="middle" class="n">1.375%</text><rect x="60" y="150" width="10" height="10" fill="#4a63e7" rx="2"/><text x="76" y="159" class="lg">California base 7.25%</text><rect x="218" y="150" width="10" height="10" fill="#c9741a" rx="2"/><text x="234" y="159" class="lg">District taxes 1.375%</text><text x="60" y="190" class="s">How that compares nearby</text><text x="60" y="213" class="l">San Francisco</text><rect x="240" y="202" width="417.2" height="14" fill="#4a63e7" rx="3"/><text x="665.2" y="213" class="v">8.625%</text><text x="60" y="239" class="l">Oakland</text><rect x="240" y="228" width="520.0" height="14" fill="#9aa7b4" rx="3"/><text x="768.0" y="239" class="v">10.75%</text><text x="60" y="265" class="l">Daly City</text><rect x="240" y="254" width="477.7" height="14" fill="#9aa7b4" rx="3"/><text x="725.7" y="265" class="v">9.875%</text><text x="60" y="291" class="l">South San Francisco</text><rect x="240" y="280" width="477.7" height="14" fill="#9aa7b4" rx="3"/><text x="725.7" y="291" class="v">9.875%</text><text x="60" y="317" class="l">San Mateo</text><rect x="240" y="306" width="465.6" height="14" fill="#9aa7b4" rx="3"/><text x="713.6" y="317" class="v">9.625%</text><text x="60" y="343" class="l">Berkeley</text><rect x="240" y="332" width="495.8" height="14" fill="#9aa7b4" rx="3"/><text x="743.8" y="343" class="v">10.25%</text></svg>